<?xml version="1.0" encoding="UTF-8" standalone="no"?>
<svg
   width="64"
   height="64"
   viewBox="0 0 64 64"
   fill="none"
   version="1.1"
   id="svg4"
   sodipodi:docname="Group(2).svg"
   inkscape:version="1.3 (0e150ed6c4, 2023-07-21)"
   xmlns:inkscape="http://www.inkscape.org/namespaces/inkscape"
   xmlns:sodipodi="http://sodipodi.sourceforge.net/DTD/sodipodi-0.dtd"
   xmlns="http://www.w3.org/2000/svg"
   xmlns:svg="http://www.w3.org/2000/svg">
  <defs
     id="defs4">
    <mask
       maskUnits="userSpaceOnUse"
       id="mask5">
      <g
         id="g6">
        <path
           d="m 28.5982,57.7027 c 15.7943,0 28.5981,-12.9172 28.5981,-28.8513 C 57.1963,12.9172 44.3925,0 28.5982,0 12.8038,0 0,12.9172 0,28.8514 0,44.7855 12.8038,57.7027 28.5982,57.7027 Z"
           fill="#ff0101"
           id="path5" />
      </g>
    </mask>
  </defs>
  <sodipodi:namedview
     id="namedview4"
     pagecolor="#ffffff"
     bordercolor="#000000"
     borderopacity="0.25"
     inkscape:showpageshadow="2"
     inkscape:pageopacity="0.0"
     inkscape:pagecheckerboard="0"
     inkscape:deskcolor="#d1d1d1"
     inkscape:zoom="10.02141"
     inkscape:cx="25.645094"
     inkscape:cy="28.039967"
     inkscape:window-width="1900"
     inkscape:window-height="1023"
     inkscape:window-x="1090"
     inkscape:window-y="333"
     inkscape:window-maximized="1"
     inkscape:current-layer="svg4" />
  <path
     id="path1"
     style="fill:#ff0101;fill-opacity:1;stroke-width:1.11402"
     d="M 31.998907,0 C 14.326042,0 0,14.327009 0,31.999999 0,40.153895 3.0541268,47.591487 8.0751238,53.24235 L 22.997165,35.587328 33.26645,19.691308 27.287144,16.667209 18.637254,24.40509 c -0.773629,0.773615 -2.039005,0.703125 -2.812634,-0.140806 -0.773629,-0.773613 -0.704143,-2.04036 0.139867,-2.813972 l 9.565579,-8.649878 c 0.632981,-0.56266 1.475168,-0.633316 2.248797,-0.281615 l 11.464709,5.766586 c 1.195579,0.91425 2.391477,1.969102 3.446406,3.0241 l 3.868191,7.525589 8.016118,-4.783104 c 0.91428,-0.562548 2.180102,-0.280534 2.7427,0.704034 0.562601,0.914363 0.283029,2.179828 -0.701519,2.742487 l -9.635513,5.766586 c -0.351681,0.210953 -0.703878,0.281613 -1.055557,0.281613 -0.70325,0 -1.335463,-0.351505 -1.687144,-0.914162 l -4.220044,-6.611426 -6.822878,10.690494 7.526583,1.759004 c 0.843898,0.140637 1.475441,0.701611 1.827011,1.475223 0.28141,0.773613 0.212595,1.688258 -0.279734,2.391552 l -8.579956,13.573788 c -0.773629,1.125206 -2.251162,1.406331 -3.376472,0.773355 -1.265849,-0.703294 -1.688985,-2.249887 -0.985625,-3.51584 L 36.009152,42.690495 26.231586,40.439751 11.949872,56.933658 C 17.436371,61.351134 24.406745,64 31.998907,64 49.67166,64 64,49.672881 64,31.999999 64,14.327009 49.67166,0 31.998907,0 Z m 13.785624,7.5255889 c 2.95197,1e-7 5.343349,2.3922194 5.343349,5.3441651 0,2.951934 -2.391379,5.34633 -5.343349,5.34633 -2.951971,0 -5.345535,-2.394396 -5.345535,-5.34633 0,-2.9519457 2.393564,-5.3441651 5.345535,-5.3441651 z" />
</svg>
